<?xml version="1.0" ?>
<!-- Uploaded to: SVG Repo, www.svgrepo.com, Generator: SVG Repo Mixer Tools -->
<svg width="800px" height="800px" viewBox="0 0 48 48" id="svg5" version="1.1" xml:space="preserve" xmlns="http://www.w3.org/2000/svg" xmlns:svg="http://www.w3.org/2000/svg">
<defs id="defs2"/>
<g id="layer1" transform="translate(-170.00002,-161)">
<path d="m 202.64062,166.45508 a 1.0001,1.0001 0 0 0 -0.60742,0.46679 l -3.0625,5.33399 a 1,1 0 0 0 0.36914,1.36523 1,1 0 0 0 1.36524,-0.36914 l 2.5625,-4.46289 1.7832,1.03516 a 1,1 0 0 0 1.36719,-0.36328 1,1 0 0 0 -0.36328,-1.36524 l -2.65235,-1.54101 a 1.0001,1.0001 0 0 0 -0.76172,-0.0996 z" id="path22337" style="color:#000000;fill:#808b9b;fill-opacity:1;fill-rule:evenodd;stroke-linecap:round;stroke-linejoin:round;stroke-miterlimit:4.1;-inkscape-stroke:none"/>
<rect height="22.999994" id="rect20525" style="fill:#e7e7e7;fill-opacity:1;fill-rule:evenodd;stroke:none;stroke-width:2.00001;stroke-linecap:round;stroke-linejoin:round;stroke-miterlimit:4.1;stroke-dasharray:none;stroke-opacity:1" width="38.000004" x="174.98341" y="180.99997"/>
<path d="m 142.43092,207.59086 -3.09945,18.36926 a 29.220596,15.510953 0 0 0 15.16287,2.27519 29.220596,15.510953 0 0 0 24.13277,-6.7706 l 1.27416,-7.55146 z" id="path29368" style="fill:#fafafa;fill-opacity:1;fill-rule:evenodd;stroke:none;stroke-width:2.00001;stroke-linecap:round;stroke-linejoin:round;stroke-miterlimit:4.1;stroke-dasharray:none;stroke-opacity:1" transform="rotate(-9.5773268)"/>
<path d="m 182.08984,186.46485 a 1.0304373,0.97045033 0 0 0 -1.03125,0.97069 v 1.2129 c -1.38019,0.40185 -2.41015,1.58618 -2.41015,3 0,1.74903 1.57613,3.14648 3.4414,3.14648 0.79822,0 1.38086,0.55095 1.38086,1.20508 0,0.65415 -0.58265,1.20508 -1.38086,1.20508 -0.79821,0 -1.38085,-0.55093 -1.38086,-1.20508 a 1.0304373,0.97045033 0 0 0 -1.03125,-0.9707 1.0304373,0.97045033 0 0 0 -1.02929,0.9707 c 0,1.41383 1.02996,2.59814 2.41015,3 v 1.21289 a 1.0304373,0.97045033 0 0 0 1.03125,0.97071 1.0304373,0.97045033 0 0 0 1.03125,-0.97071 V 199 c 1.3802,-0.40186 2.41211,-1.58617 2.41211,-3 0,-1.74902 -1.57809,-3.14649 -3.44336,-3.14649 -0.79822,0 -1.38086,-0.5509 -1.38086,-1.20507 0,-0.65415 0.58263,-1.20508 1.38086,-1.20508 0.79823,0 1.38086,0.55093 1.38086,1.20508 a 1.0304373,0.97045033 0 0 0 1.03125,0.9707 1.0304373,0.97045033 0 0 0 1.03125,-0.9707 c 0,-1.41382 -1.03191,-2.59815 -2.41211,-3 v -1.2129 a 1.0304373,0.97045033 0 0 0 -1.03125,-0.97069 z" id="path21253" style="color:#000000;fill:#808b9b;fill-opacity:1;fill-rule:evenodd;stroke:none;stroke-width:0.999996;stroke-linecap:round;stroke-linejoin:round;stroke-miterlimit:4.1;stroke-opacity:1"/>
<path d="m 188.9834,186 h 20.01662 v 5 H 188.9834 Z" id="path24769" style="color:#000000;fill:#ff5576;fill-opacity:1;fill-rule:evenodd;stroke-width:1.99999;stroke-linecap:round;stroke-linejoin:round;stroke-miterlimit:4.1;-inkscape-stroke:none"/>
<path d="m 188.95703,194 a 1,1 0 0 0 -1,1 1,1 0 0 0 1,1 h 10.95313 a 1,1 0 0 0 1,-1 1,1 0 0 0 -1,-1 z" id="path22871" style="color:#000000;fill:#808b9b;fill-opacity:1;fill-rule:evenodd;stroke-linecap:round;stroke-linejoin:round;stroke-miterlimit:4.1"/>
<path d="m 189.00977,197 a 1,1 0 0 0 -1,1 1,1 0 0 0 1,1 h 20.32812 a 1,1 0 0 0 1,-1 1,1 0 0 0 -1,-1 z" id="path22877" style="color:#000000;fill:#808b9b;fill-opacity:1;fill-rule:evenodd;stroke-linecap:round;stroke-linejoin:round;stroke-miterlimit:4.1;-inkscape-stroke:none"/>
<path d="m 208.98338,166.27058 c -0.97672,-0.5668 -2.22562,-0.23044 -2.78953,0.75128 l -10.21037,17.77578 0.23693,3.69264 3.30004,-1.64007 10.21038,-17.77577 c 0.5639,-0.98173 0.22925,-2.23706 -0.74745,-2.80386 z" id="rect22332" style="fill:#f2a50c;fill-opacity:1;fill-rule:evenodd;stroke:none;stroke-width:2;stroke-linecap:round;stroke-linejoin:round;stroke-miterlimit:4.1"/>
<path d="m 258.43717,-63.531468 c -0.45683,0.562233 -0.59882,1.351987 -0.30061,2.070951 l 5.72364,13.797421 a 4.5451322,14.150843 0 0 0 0.31787,-5.17606 4.5451322,14.150843 0 0 0 -0.37745,-5.640028 l -1.87957,-4.531326 c -0.43377,-1.045764 -1.63201,-1.545385 -2.67701,-1.117374 -0.32656,0.133758 -0.59922,0.340856 -0.80687,0.596416 z" id="path51208" style="fill:#f7c63d;fill-opacity:1;fill-rule:evenodd;stroke:none;stroke-width:2;stroke-linecap:round;stroke-linejoin:round;stroke-miterlimit:4.1;stroke-dasharray:none;stroke-opacity:1" transform="rotate(52.400667)"/>
</g>
</svg>