<?xml version="1.0" encoding="iso-8859-1"?>
<!-- Generator: Adobe Illustrator 19.0.0, SVG Export Plug-In . SVG Version: 6.00 Build 0)  -->
<svg version="1.1" id="Layer_1" xmlns="http://www.w3.org/2000/svg" xmlns:xlink="http://www.w3.org/1999/xlink" x="0px" y="0px"
	 viewBox="0 0 511.999 511.999" style="enable-background:new 0 0 511.999 511.999;" xml:space="preserve">
<path style="fill:#6BE8C7;" d="M497.063,123.673c-6.122,4.798-13.645,7.954-21.968,8.712c-22.999,2.093-43.34-14.855-45.433-37.855
	s14.855-43.341,37.855-45.433c8.323-0.758,16.292,0.989,23.18,4.603l-2.787-30.627c-0.56-6.164-6.062-10.749-12.227-10.187
	L138.89,43.53c-6.164,0.561-10.749,6.064-10.187,12.228l2.955,32.476c6.521-5.998,14.986-9.986,24.492-10.85
	c22.999-2.093,43.34,14.855,45.433,37.855s-14.855,43.341-37.855,45.434c-9.505,0.864-18.552-1.529-26.048-6.252l2.966,32.596
	c0.561,6.163,6.062,10.747,12.227,10.187l22.377-2.037l50.099-4.558l264.319-24.051c6.164-0.561,10.749-6.062,10.187-12.227
	L497.063,123.673z M318.066,146.688c-22.999,2.093-43.34-14.855-45.433-37.855s14.855-43.341,37.855-45.434
	c22.999-2.093,43.34,14.855,45.433,37.855C358.013,124.254,341.065,144.595,318.066,146.688z"/>
<circle style="fill:#3CD3A8;" cx="314.274" cy="105.039" r="41.816"/>
<g>
	<path style="fill:#9AF7DD;" d="M467.516,49.097c-22.999,2.093-39.948,22.434-37.855,45.433s22.434,39.948,45.433,37.855
		c8.323-0.756,15.846-3.912,21.968-8.712L490.695,53.7C483.808,50.086,475.839,48.341,467.516,49.097z"/>
	<path style="fill:#9AF7DD;" d="M163.727,160.671c22.999-2.093,39.948-22.434,37.855-45.434
		c-2.093-22.999-22.434-39.946-45.433-37.855c-9.505,0.866-17.971,4.854-24.492,10.852l6.023,66.185
		C145.176,159.142,154.223,161.535,163.727,160.671z"/>
</g>
<path style="fill:#3CD3A8;" d="M429.76,172.162L181.446,51.774c-5.567-2.706-12.335-0.365-15.041,5.202l-31.601,65.002l5.014,55.102
	c0.561,6.163,6.062,10.747,12.227,10.187l22.377-2.037l50.099-4.558L429.76,172.162z"/>
<polygon style="fill:#FFE8CA;" points="230.034,249.629 337.858,305.879 232.388,412.365 203.159,441.594 84.142,308.179 
	97.037,279.966 "/>
<path style="fill:#6BE8C7;" d="M137.5,222.731l-20.208-9.825c-5.567-2.706-7.907-9.474-5.2-15.041l57.624-118.534
	c2.706-5.567,9.474-7.907,15.041-5.2l304.148,147.86c5.567,2.706,7.907,9.474,5.2,15.041l-57.624,118.534
	c-2.706,5.567-9.474,7.907-15.041,5.2l-238.698-116.04L137.5,222.731z"/>
<circle style="fill:#3CD3A8;" cx="303.096" cy="217.443" r="41.816"/>
<g>
	<path style="fill:#9AF7DD;" d="M463.196,248.767c-20.769-10.097-45.793-1.446-55.889,19.325
		c-10.098,20.771-1.446,45.793,19.325,55.891c7.517,3.654,15.588,4.84,23.309,3.899l30.719-63.19
		C476.631,258.036,470.713,252.422,463.196,248.767z"/>
	<path style="fill:#9AF7DD;" d="M201.358,167.921c10.097-20.771,1.446-45.793-19.325-55.891c-8.584-4.173-17.893-5.136-26.575-3.371
		l-29.056,59.769c3.976,7.918,10.483,14.644,19.067,18.817C166.238,197.343,191.26,188.691,201.358,167.921z"/>
</g>
<path style="fill:#3CD3A8;" d="M210.034,229.589l5.44-17.634c0,0,2.672,1.025,6.125,3.115c4.798,2.906,11.103,7.872,13.838,15.011
	c2.557,6.675,4.222,15.993,1.345,26.047"/>
<path style="fill:#FFD2A1;" d="M230.973,268.341c-6.102,8.935-16.679,17.856-34.085,25.528l3.581-33.279l9.564-31"/>
<g>
	<path style="fill:#3CD3A8;" d="M236.781,256.128c-1.143,3.994-3.002,8.106-5.808,12.212l-24.98-12.763l7.862-14.152l4.268-6.964
		L236.781,256.128z"/>
	<path style="fill:#3CD3A8;" d="M222.049,216.939c0,0,65.206-68.413,75.895-87.653l-16.035-0.713l-74.114,66.274l0.713,15.678
		L222.049,216.939z"/>
</g>
<path style="fill:#FFE8CA;" d="M196.69,294.352l25.343-25.343c13.997-13.997,13.997-36.689,0-50.685l-6.336-6.336l79.088-79.088
	c0.168-0.168,0.332-0.338,0.499-0.506c44.804-44.804-5.046-83.645-42.33-46.362c-19.665,19.665-39.33,39.33-58.997,58.997
	c-17.91,17.91-35.819,35.819-53.729,53.729c-10.051,10.051-17.241,19.861-21.861,33.616c-5.553,16.53-8.692,34.951-21.332,47.59
	l-1.714,1.714L72.31,304.69l59.984,42.547L196.69,294.352z"/>
<path style="fill:#B0F6FF;" d="M53.075,264.902l-26.51,26.51L7.387,310.589c-5.501,5.501-5.501,14.502,0,20.003l168.46,168.46
	c5.501,5.501,14.502,5.501,20.003,0l26.51-26.51l19.177-19.177c5.501-5.501,5.501-14.502,0-20.003l-168.46-168.46
	C67.577,259.402,58.574,259.401,53.075,264.902z"/>
<path style="fill:#60D8E8;" d="M194.456,386.281l-65.69,65.69l47.082,47.082c5.501,5.501,14.502,5.501,20.003,0l26.51-26.51
	l19.177-19.177c5.501-5.501,5.501-14.502,0-20.003L194.456,386.281z"/>
<path d="M167.399,502.601c4.264,4.448,10.02,6.968,16.206,7.1c0.168,0.003,0.334,0.005,0.501,0.005
	c6.002,0,11.662-2.268,15.989-6.416l26.419-25.331c3.714-3.561,3.838-9.457,0.277-13.171c-3.56-3.712-9.456-3.838-13.171-0.278
	L187.2,489.841c-1.154,1.107-2.496,1.233-3.204,1.232c-0.701-0.015-2.043-0.212-3.15-1.366l-38.543-40.2l52.022-49.878l38.543,40.2
	c3.561,3.714,9.458,3.838,13.171,0.278c3.714-3.561,3.838-9.458,0.277-13.171l-10.264-10.706l64.639-60.674
	c3.752-3.521,3.939-9.417,0.417-13.168c-3.521-3.752-9.416-3.939-13.168-0.417l-64.784,60.809L105.469,280.036
	c10.929-11.621,15.621-26.211,20.163-40.349c1.205-3.75,2.341-7.291,3.591-10.766c4.202-11.689,10.418-20.774,21.456-31.358
	l121.257-116.26c7.107-6.815,15.539-9.256,23.74-6.873c8.152,2.369,14.696,9.112,16.677,17.177
	c2.139,8.709-1.32,17.952-9.813,26.098L217,199.724c-3.714,3.561-3.838,9.457-0.278,13.171l6.534,6.815
	c5.259,5.486,8.068,12.691,7.908,20.289c-0.16,7.598-3.269,14.677-8.754,19.937l-27.26,26.136
	c-3.714,3.561-3.838,9.457-0.277,13.171c1.83,1.908,4.275,2.869,6.726,2.869c2.319,0,4.64-0.859,6.445-2.591l27.26-26.136
	c9.078-8.704,14.223-20.42,14.487-32.994c0.265-12.573-4.383-24.498-13.086-33.574l-0.088-0.091l69.247-66.394l118.016,55.939
	c1.288,0.61,2.646,0.9,3.983,0.9c3.488,0,6.831-1.967,8.424-5.328c2.203-4.648,0.221-10.203-4.428-12.407l-77.981-36.963
	c11.912-12.286,16.971-29.64,13.235-46.65c-6.156-28.033-32.458-45.271-59.873-39.255c-1.052,0.231-2.018,0.64-2.885,1.175
	c-1.141-0.446-2.297-0.861-3.479-1.204c-14.645-4.255-29.895-0.132-41.834,11.315l-121.257,116.26
	c-13.106,12.568-20.91,24.083-26.094,38.503c-1.358,3.776-2.598,7.636-3.797,11.37c-3.96,12.328-7.728,24.016-15.353,32.565
	l-7.203-7.512c-4.265-4.448-10.02-6.968-16.206-7.1c-6.18-0.083-12.042,2.147-16.489,6.411L7.109,302.011
	c-9.204,8.823-9.512,23.492-0.687,32.694L167.399,502.601z M348.917,99.82c2.658,12.105-1.661,24.498-11.269,32.34
	c-0.661,0.54-1.22,1.156-1.692,1.818l-16.035-7.6c9.985-11.816,13.814-25.817,10.525-39.214c-1.074-4.373-2.9-8.52-5.313-12.302
	C336.652,77.609,346.085,86.928,348.917,99.82z M20.004,315.46l45.534-43.658c1.154-1.107,2.504-1.22,3.204-1.232
	c0.701,0.015,2.043,0.212,3.15,1.366l109.539,114.245L129.41,436.06L19.872,321.814C18.184,320.054,18.246,317.144,20.004,315.46z"
	/>
<path d="M414.876,17.441c-0.467-5.125-4.995-8.918-10.121-8.432L139.395,33.174c-5.471,0.498-10.428,3.106-13.957,7.343
	c-3.53,4.237-5.2,9.584-4.701,15.054l1.587,17.439c0.44,4.838,4.502,8.471,9.266,8.471c0.283,0,0.569-0.012,0.856-0.039
	c5.123-0.466,8.899-4.997,8.432-10.12l-1.587-17.441c-0.061-0.66,0.217-1.146,0.461-1.44c0.245-0.292,0.673-0.653,1.334-0.714
	l265.358-24.165C411.568,27.096,415.343,22.565,414.876,17.441z"/>
<path d="M491.566,156.659l-28.85,2.627c-5.123,0.466-8.898,4.997-8.431,10.121c0.44,4.837,4.502,8.471,9.266,8.469
	c0.283,0,0.569-0.012,0.855-0.039l28.851-2.627c5.47-0.498,10.428-3.106,13.957-7.343c3.529-4.237,5.199-9.584,4.7-15.054
	L499.915,21.039c-1.031-11.317-11.07-19.699-22.399-18.658l-22.465,2.046c-5.123,0.466-8.898,4.998-8.431,10.121
	c0.466,5.123,4.981,8.895,10.121,8.431l22.464-2.046c1.056-0.101,2.058,0.725,2.156,1.795l11.999,131.777
	c0.06,0.66-0.219,1.148-0.462,1.44C492.655,156.237,492.226,156.599,491.566,156.659z"/>
<path d="M420.99,94.655c2.177,23.908,21.88,42.788,45.829,43.917c0.149,0.006,0.297,0.01,0.445,0.01
	c4.942,0,9.063-3.888,9.297-8.877c0.242-5.14-3.727-9.5-8.867-9.743c-14.711-0.694-26.813-12.3-28.152-26.998
	c-1.395-15.319,8.93-29.03,24.017-31.893c5.054-0.958,8.375-5.833,7.416-10.888c-0.958-5.055-5.84-8.378-10.888-7.416
	C435.529,47.425,418.72,69.732,420.99,94.655z"/>
<path d="M191.528,64.447c-10.254-4.907-22.586-0.555-27.491,9.699l-39.135,81.796c-2.221,4.64-0.258,10.203,4.383,12.424
	c1.297,0.621,2.665,0.914,4.013,0.914c3.475,0,6.81-1.954,8.41-5.297l39.135-81.796c0.465-0.97,1.676-1.397,2.644-0.934
	l24.191,11.575c4.643,2.222,10.205,0.257,12.424-4.382c2.221-4.64,0.258-10.203-4.382-12.424L191.528,64.447z"/>
<path d="M265.748,293.691l157.148,73.845c2.862,1.37,5.885,2.017,8.864,2.017c7.693,0,15.09-4.324,18.628-11.715l57.108-119.363
	c2.371-4.956,2.665-10.549,0.832-15.75c-1.836-5.2-5.574-9.37-10.53-11.741l-20.35-9.736c-4.642-2.222-10.203-0.258-12.424,4.382
	c-2.22,4.64-0.258,10.203,4.382,12.424l20.35,9.736c0.597,0.286,0.874,0.774,1.001,1.133c0.128,0.359,0.219,0.913-0.068,1.51
	l-57.108,119.361c-0.463,0.969-1.674,1.4-2.705,0.905l-157.204-73.873c-4.656-2.187-10.205-0.185-12.393,4.47
	C259.092,285.954,261.093,291.502,265.748,293.691z"/>
<path d="M285.073,262.265c6.982,3.339,14.419,5.034,22.111,5.034c19.649,0,37.824-11.449,46.301-29.166
	c5.915-12.36,6.66-26.283,2.102-39.204c-4.558-12.921-13.875-23.294-26.234-29.209c-6.982-3.339-14.419-5.034-22.111-5.034
	c-19.649,0-37.825,11.449-46.302,29.166C248.733,219.368,259.559,250.058,285.073,262.265z M277.746,201.893
	c5.399-11.285,16.977-18.577,29.496-18.577c4.886,0,9.618,1.079,14.069,3.209c7.871,3.766,13.804,10.372,16.707,18.601
	s2.427,17.094-1.339,24.965c-5.399,11.285-16.976,18.577-29.495,18.577c-4.886,0-9.618-1.079-14.069-3.209
	C276.867,237.685,269.972,218.141,277.746,201.893z"/>
<path d="M402.022,261.346c-10.362,21.657-3.093,47.96,16.907,61.183c1.581,1.047,3.366,1.546,5.13,1.546
	c3.023,0,5.987-1.469,7.779-4.178c2.838-4.292,1.659-10.07-2.632-12.909c-12.286-8.123-16.746-24.288-10.376-37.6
	c6.639-13.876,22.523-20.376,36.952-15.116c4.837,1.765,10.181-0.729,11.942-5.561c1.762-4.834-0.727-10.18-5.561-11.942
	C438.678,228.203,412.822,238.772,402.022,261.346z"/>
<g>
</g>
<g>
</g>
<g>
</g>
<g>
</g>
<g>
</g>
<g>
</g>
<g>
</g>
<g>
</g>
<g>
</g>
<g>
</g>
<g>
</g>
<g>
</g>
<g>
</g>
<g>
</g>
<g>
</g>
</svg>
